<svg xmlns="http://www.w3.org/2000/svg" width="133.756" height="150.833" viewBox="0 0 133.756 150.833">
  <g id="Group_21408" data-name="Group 21408" transform="translate(-130.42 -315.047)">
    <g id="coin-locker-4-svgrepo-com" transform="translate(132.617 311.356) rotate(-14)">
      <path id="Path_1" data-name="Path 1" d="M163.218,32.7a5.857,5.857,0,0,1,5.859-5.858H181.89a5.857,5.857,0,0,1,5.859,5.858v4.736h6.385V32.7A12.245,12.245,0,0,0,181.89,20.458H169.077A12.245,12.245,0,0,0,156.833,32.7v4.736h6.385V32.7Z" transform="translate(-127.337)" fill="#54ac89"/>
      <path id="Path_2" data-name="Path 2" d="M103.251,290.614a3.944,3.944,0,1,0,3.942,3.947A3.946,3.946,0,0,0,103.251,290.614Z" transform="translate(-80.629 -219.347)" fill="#54ac89"/>
      <path id="Path_3" data-name="Path 3" d="M88.692,130.455H7.6a7.6,7.6,0,0,0-7.6,7.6v52.707a7.6,7.6,0,0,0,7.6,7.6H88.692a7.6,7.6,0,0,0,7.6-7.6V138.057A7.6,7.6,0,0,0,88.692,130.455Zm-5.966,36.7-1.709,2.367a1.643,1.643,0,0,1-1.332.68H50.125a18.85,18.85,0,1,1-1.048-13.777h5.911a1.645,1.645,0,0,1,1.008.348l4.921,3.81a1.648,1.648,0,0,0,2,.009l1.951-1.479a1.644,1.644,0,0,1,1.985,0l2.956,2.242h0l2.958-2.245a1.649,1.649,0,0,1,1.984,0l7.633,5.773A1.643,1.643,0,0,1,82.726,167.157Z" transform="translate(0 -89.309)" fill="#54ac89"/>
    </g>
    <path id="Path_19" data-name="Path 19" d="M7.42,32V12.96H19.74v3.36H11.284v4.452H18.06v3.3H11.284V28.64H19.74V32Zm25.9-9.632v5.824a2.232,2.232,0,0,0,.224.938,1.042,1.042,0,0,0,.7.378l-.112,2.828a10.606,10.606,0,0,1-2.282-.2,5.133,5.133,0,0,1-1.722-.784,9.32,9.32,0,0,1-4.116.98q-4.34,0-4.34-4.592a3.793,3.793,0,0,1,1.2-3.178,6.75,6.75,0,0,1,3.7-1.106l3-.224v-.868a1.48,1.48,0,0,0-.392-1.19,1.981,1.981,0,0,0-1.26-.322l-5.264.224-.112-2.6a21.794,21.794,0,0,1,5.7-.812,5.572,5.572,0,0,1,3.892,1.12A4.726,4.726,0,0,1,33.32,22.368Zm-6.3,3.7a1.519,1.519,0,0,0-1.568,1.68q0,1.54,1.372,1.54a9.068,9.068,0,0,0,2.324-.336l.42-.112v-3ZM46.956,21.5a44.582,44.582,0,0,0-4.858-.448,4.013,4.013,0,0,0-1.792.252.87.87,0,0,0-.406.8.76.76,0,0,0,.546.756,21.353,21.353,0,0,0,2.8.616,6.162,6.162,0,0,1,3.206,1.33,4.035,4.035,0,0,1,.952,3q0,4.536-5.628,4.536a24.436,24.436,0,0,1-4.48-.5l-.9-.168.112-3.136a44.64,44.64,0,0,0,4.83.448,4.34,4.34,0,0,0,1.848-.266.857.857,0,0,0,.49-.8.826.826,0,0,0-.518-.784,13.385,13.385,0,0,0-2.688-.616A6.931,6.931,0,0,1,37.24,25.28a3.809,3.809,0,0,1-1.064-3.094,3.935,3.935,0,0,1,1.512-3.36,6.314,6.314,0,0,1,3.892-1.134,26.145,26.145,0,0,1,4.508.532l.924.168Zm1.68-3.5h3.7L54.88,28.808h.644L58.072,18h3.7L56.84,37.88H53.172L54.712,32H52.08ZM75.1,32H64.26V12.96h3.864V28.584H75.1Zm2.8-12.4q1.484-1.932,4.956-1.932t4.956,1.918a8.63,8.63,0,0,1,1.484,5.39q0,7.364-6.44,7.364t-6.44-7.364A8.568,8.568,0,0,1,77.9,19.6Zm2.884,8.54a2.2,2.2,0,0,0,2.072,1.008,2.163,2.163,0,0,0,2.058-1.008,6.647,6.647,0,0,0,.574-3.164,6.47,6.47,0,0,0-.574-3.136,2.651,2.651,0,0,0-4.116,0,6.47,6.47,0,0,0-.574,3.136A6.791,6.791,0,0,0,80.78,28.136ZM97.272,17.664a20,20,0,0,1,3.724.448l.756.168-.112,2.968q-2.212-.224-3.276-.224a3.111,3.111,0,0,0-2.562.826,5.469,5.469,0,0,0-.63,3.122,5.62,5.62,0,0,0,.63,3.15,3.092,3.092,0,0,0,2.59.854l3.248-.224.112,3a25.782,25.782,0,0,1-4.564.588q-3.108,0-4.466-1.75t-1.358-5.614q0-3.864,1.4-5.586A5.478,5.478,0,0,1,97.272,17.664Zm11,14.336h-3.752V12.4h3.752V23.544l1.428-.252L112.476,18h4.2l-3.64,6.636L116.872,32h-4.228l-2.828-5.46-1.54.252Zm13.5-5.4a2.426,2.426,0,0,0,.686,1.862,2.79,2.79,0,0,0,1.89.574q2.6,0,4.648-.168l.784-.084.056,2.772a24.847,24.847,0,0,1-5.824.784q-3.164,0-4.592-1.68t-1.428-5.46q0-7.532,6.188-7.532,6.1,0,6.1,6.328L130,26.6Zm4.816-2.856a3.826,3.826,0,0,0-.532-2.338,2.935,2.935,0,0,0-3.738.028,3.877,3.877,0,0,0-.574,2.31ZM132.972,32V18H136.7v1.484a14.248,14.248,0,0,1,4.48-1.82v3.78q-2.268.476-3.892.98l-.56.2V32Z" transform="translate(123 428)" fill="#54ac89"/>
  </g>
</svg>
