<svg xmlns="http://www.w3.org/2000/svg" width="15" height="16.667" viewBox="0 0 15 16.667">
  <g id="copy-svgrepo-com_1_" data-name="copy-svgrepo-com (1)" transform="translate(-3 -2)">
    <path id="Path_20" data-name="Path 20" d="M13.2,2H9.955a29.107,29.107,0,0,0-3.546.123,3.761,3.761,0,0,0-2.3.994,3.791,3.791,0,0,0-.99,2.305A29.458,29.458,0,0,0,3,8.983v4.865a3.013,3.013,0,0,0,1.856,2.785C4.8,15.875,4.8,14.811,4.8,13.927V9.752a22.243,22.243,0,0,1,.1-2.725,3.587,3.587,0,0,1,.956-2.161,3.559,3.559,0,0,1,2.152-.96,21.98,21.98,0,0,1,2.714-.1h2.558a21.946,21.946,0,0,1,2.712.1A3,3,0,0,0,13.2,2Z" fill="#fff"/>
    <path id="Path_21" data-name="Path 21" d="M6.6,10.434c0-2.272,0-3.408.7-4.114s1.834-.706,4.1-.706h2.4c2.263,0,3.394,0,4.1.706s.7,1.842.7,4.114V14.45c0,2.272,0,3.408-.7,4.114s-1.834.706-4.1.706H11.4c-2.263,0-3.394,0-4.1-.706s-.7-1.842-.7-4.114Z" transform="translate(-0.6 -0.602)" fill="#fff"/>
  </g>
</svg>
