<svg xmlns="http://www.w3.org/2000/svg" width="22" height="22" viewBox="0 0 22 22">
  <g id="Group_21439" data-name="Group 21439" transform="translate(-302)">
    <circle id="Ellipse_2" data-name="Ellipse 2" cx="11" cy="11" r="11" transform="translate(302)" fill="#54ac89"/>
    <g id="edit-svgrepo-com" transform="translate(305.004 2.586)">
      <path id="Path_23" data-name="Path 23" d="M4,12.421v1.173a.256.256,0,0,0,.256.256H5.427a.256.256,0,0,0,.181-.075l4.835-4.835L8.907,7.405,4.07,12.24A.256.256,0,0,0,4,12.421Z" transform="translate(0 -1.436)" fill="#fff"/>
      <path id="Path_24" data-name="Path 24" d="M14.832,5.311l1.535,1.535.747-.747a.512.512,0,0,0,0-.724L16.3,4.564a.512.512,0,0,0-.724,0Z" transform="translate(-5.267)" fill="#fff"/>
    </g>
  </g>
</svg>
