<svg xmlns="http://www.w3.org/2000/svg" width="27.715" height="22.865" viewBox="0 0 27.715 22.865">
  <path id="image-svgrepo-com" d="M.5,6.579V25.286c0,1.746.353,2.079,2.079,2.079H26.136c1.712,0,2.079-.319,2.079-2.079V6.579c0-1.7-.326-2.079-2.079-2.079H2.579C.86,4.5.5,4.8.5,6.579ZM24.951,22.514H3.777c2.314-3.374,6.429-9,7.475-9,1.012,0,4.448,4.546,6,6.146,0,0,2-2.668,3.042-2.668C21.361,16.992,24.917,22.487,24.951,22.514ZM18.73,10.736a2.556,2.556,0,1,1,2.556,2.556A2.554,2.554,0,0,1,18.73,10.736Z" transform="translate(-0.5 -4.5)" fill="#54ac89"/>
</svg>
