<svg xmlns="http://www.w3.org/2000/svg" width="34" height="34" viewBox="0 0 34 34">
  <g id="Group_21399" data-name="Group 21399" transform="translate(-332 -57)">
    <rect id="Rectangle_18036" data-name="Rectangle 18036" width="34" height="34" rx="8" transform="translate(332 57)" fill="#54ac89"/>
    <path id="Path_5459" data-name="Path 5459" d="M22.783,8.945h-1.62l-.945,3.5h1.62l-.477,1.818h-1.62L19,17H17.131l.738-2.736H14.233L13.495,17H11.623l.738-2.736h-1.62l.486-1.818h1.611l.945-3.5h-1.62l.486-1.809H14.26L15,4.4h1.872l-.738,2.736h3.654l.72-2.736h1.872l-.72,2.736h1.6Zm-4.437,3.5.945-3.5H15.655l-.945,3.5Z" transform="translate(332 63)" fill="#fff"/>
  </g>
</svg>
