<svg xmlns="http://www.w3.org/2000/svg" width="76" height="76" viewBox="0 0 76 76">
  <path id="Subtraction_1" data-name="Subtraction 1" d="M-3955-609a37.761,37.761,0,0,1-14.791-2.986,37.873,37.873,0,0,1-12.079-8.144,37.875,37.875,0,0,1-8.144-12.079A37.758,37.758,0,0,1-3993-647a37.758,37.758,0,0,1,2.986-14.791,37.875,37.875,0,0,1,8.144-12.079,37.873,37.873,0,0,1,12.079-8.144A37.761,37.761,0,0,1-3955-685a37.763,37.763,0,0,1,14.792,2.986,37.872,37.872,0,0,1,12.079,8.144,37.875,37.875,0,0,1,8.144,12.079A37.763,37.763,0,0,1-3917-647a37.763,37.763,0,0,1-2.986,14.792,37.874,37.874,0,0,1-8.144,12.079,37.872,37.872,0,0,1-12.079,8.144A37.763,37.763,0,0,1-3955-609Zm3.339-51.354v26.708h6.677v-26.708Zm-13.354,0v26.708h6.677v-26.708Z" transform="translate(3993 685)" fill="#54ac89"/>
</svg>
