<svg xmlns="http://www.w3.org/2000/svg" width="34" height="34" viewBox="0 0 34 34">
  <g id="Group_21378" data-name="Group 21378" transform="translate(-332 -57)">
    <rect id="Rectangle_18036" data-name="Rectangle 18036" width="34" height="34" rx="8" transform="translate(332 57)" fill="#54ac89"/>
    <path id="add-svgrepo-com" d="M7.663,12.337a.913.913,0,1,0,0,1.826Zm6.087,1.826a.913.913,0,0,0,0-1.826Zm0-1.826a.913.913,0,1,0,0,1.826Zm6.087,1.826a.913.913,0,0,0,0-1.826Zm-5.174-.913a.913.913,0,0,0-1.826,0Zm-1.826,6.087a.913.913,0,1,0,1.826,0Zm0-6.087a.913.913,0,1,0,1.826,0Zm1.826-6.087a.913.913,0,0,0-1.826,0Zm-7,7H13.75V12.337H7.663Zm6.087,0h6.087V12.337H13.75Zm0-.913h-.913v0h0v6.031h1.826V13.306h0v0H13.75Zm.913,0V7.163H12.837V13.25Z" transform="translate(335.25 60.75)" fill="#fff"/>
  </g>
</svg>
