<svg xmlns="http://www.w3.org/2000/svg" width="12.522" height="16" viewBox="0 0 12.522 16">
  <path id="terms-and-conditions-icon" d="M8.169,14.363l2.8-2.94h-2.8v2.94ZM2.939,5.982v-2.6H2.083v-.8h2.6v.8H3.826v2.6Zm6.327.027a1.8,1.8,0,0,1-.521-.069.849.849,0,0,1-.391-.251A1.234,1.234,0,0,1,8.1,5.168a3.784,3.784,0,0,1-.086-.892,3.411,3.411,0,0,1,.091-.868,1.264,1.264,0,0,1,.26-.521.874.874,0,0,1,.391-.26,1.693,1.693,0,0,1,.5-.07,3.557,3.557,0,0,1,.5.03,3,3,0,0,1,.37.07,1.659,1.659,0,0,1,.245.082v.69c-.057-.012-.13-.025-.224-.036s-.2-.022-.313-.03S9.6,3.35,9.458,3.35a.947.947,0,0,0-.26.033.306.306,0,0,0-.172.13.729.729,0,0,0-.094.281,3.271,3.271,0,0,0-.03.491,3.678,3.678,0,0,0,.023.457.792.792,0,0,0,.082.286.332.332,0,0,0,.172.146.818.818,0,0,0,.29.043c.23,0,.419,0,.564-.012s.26-.017.345-.029v.682a1.608,1.608,0,0,1-.26.077,3.137,3.137,0,0,1-.359.051c-.13.012-.3.018-.488.018ZM6,6.034a1.376,1.376,0,0,1-.615-.13.949.949,0,0,1-.391-.339A.841.841,0,0,1,4.853,5.1a.727.727,0,0,1,.072-.331.9.9,0,0,1,.2-.26,2.246,2.246,0,0,1,.3-.237L6.177,3.8a.421.421,0,0,0,.154-.148.3.3,0,0,0,.035-.137.2.2,0,0,0-.057-.141.236.236,0,0,0-.182-.06A.293.293,0,0,0,6,3.342a.208.208,0,0,0-.085.079.221.221,0,0,0-.031.12.391.391,0,0,0,.056.2A19.268,19.268,0,0,0,7.911,5.982h-.9L5.665,4.557c-.066-.07-.139-.156-.22-.26a1.645,1.645,0,0,1-.206-.346,1,1,0,0,1-.087-.421.911.911,0,0,1,.121-.462.924.924,0,0,1,.341-.333,1.031,1.031,0,0,1,.512-.13.954.954,0,0,1,.48.116.831.831,0,0,1,.313.306.84.84,0,0,1,.112.424.855.855,0,0,1-.115.432,1.13,1.13,0,0,1-.327.353,5.686,5.686,0,0,0-.826.613.28.28,0,0,0-.057.185.286.286,0,0,0,.044.161.276.276,0,0,0,.13.1.465.465,0,0,0,.189.035A.733.733,0,0,0,6.4,5.251a1.007,1.007,0,0,0,.3-.225,1.112,1.112,0,0,0,.306-.781h.707a2.509,2.509,0,0,1-.06.556,1.658,1.658,0,0,1-.193.491,1.247,1.247,0,0,1-.35.375l-.13.064-.13.065a1.352,1.352,0,0,1-.417.181,1.81,1.81,0,0,1-.427.053ZM2.465,11.719h2.5v.72h-2.5Zm0-1.823H6.018v.72H2.465Zm0-1.823h7.591v.72H2.465V8.065Zm10.057,2.975a.466.466,0,0,1-.34.449L8.064,15.828A.462.462,0,0,1,7.7,16H.837A.836.836,0,0,1,0,15.163V.837A.836.836,0,0,1,.837,0H11.685a.839.839,0,0,1,.837.837Zm-.934-.56V.935H.935V15.069h6.3V10.958a.47.47,0,0,1,.47-.47Z" transform="translate(0 0)" fill="#fff"/>
</svg>
