<svg xmlns="http://www.w3.org/2000/svg" width="34" height="34" viewBox="0 0 34 34">
  <g id="Group_21415" data-name="Group 21415" transform="translate(-267 -775)">
    <circle id="Ellipse_1" data-name="Ellipse 1" cx="17" cy="17" r="17" transform="translate(267 775)" fill="#4f6376"/>
    <g id="Page-1" transform="translate(277.004 785.017)">
      <g id="Icon-Set-Filled" transform="translate(0.003 -0.017)">
        <path id="attachment-2" d="M273.276,161.08l-7.115,7.036a3.043,3.043,0,0,1-4.269,0,2.961,2.961,0,0,1,0-4.221l6.4-6.333a2.029,2.029,0,0,1,2.846,0,1.975,1.975,0,0,1,0,2.814l-6.4,6.333a1.014,1.014,0,0,1-1.423,0,.988.988,0,0,1,0-1.407l5.693-5.629-.712-.7L262.6,164.6a1.974,1.974,0,0,0,0,2.815,2.029,2.029,0,0,0,2.846,0l6.4-6.332a2.962,2.962,0,0,0,0-4.222,3.043,3.043,0,0,0-4.269,0l-6.76,6.684.025.024a3.946,3.946,0,0,0,.331,5.253,4.057,4.057,0,0,0,5.312.327l.024.024,7.471-7.388-.712-.7" transform="translate(-260.003 -155.983)" fill="#fff" fill-rule="evenodd"/>
      </g>
    </g>
  </g>
</svg>
