<svg xmlns="http://www.w3.org/2000/svg" width="10.5" height="12" viewBox="0 0 10.5 12">
  <path id="_8665078_calendar_days_icon" data-name="8665078_calendar_days_icon" d="M3.75.75V1.5h3V.75a.75.75,0,1,1,1.5,0V1.5H9.375A1.125,1.125,0,0,1,10.5,2.625V3.75H0V2.625A1.125,1.125,0,0,1,1.125,1.5H2.25V.75a.75.75,0,0,1,1.5,0ZM0,4.5H10.5v6.375A1.125,1.125,0,0,1,9.375,12H1.125A1.125,1.125,0,0,1,0,10.875ZM1.5,7.125a.375.375,0,0,0,.375.375h.75A.376.376,0,0,0,3,7.125v-.75A.376.376,0,0,0,2.625,6h-.75a.375.375,0,0,0-.375.375Zm3,0a.376.376,0,0,0,.375.375h.75A.376.376,0,0,0,6,7.125v-.75A.376.376,0,0,0,5.625,6h-.75a.376.376,0,0,0-.375.375ZM7.875,6a.376.376,0,0,0-.375.375v.75a.376.376,0,0,0,.375.375h.75A.376.376,0,0,0,9,7.125v-.75A.376.376,0,0,0,8.625,6ZM1.5,10.125a.375.375,0,0,0,.375.375h.75A.376.376,0,0,0,3,10.125v-.75A.376.376,0,0,0,2.625,9h-.75a.375.375,0,0,0-.375.375ZM4.875,9a.376.376,0,0,0-.375.375v.75a.376.376,0,0,0,.375.375h.75A.376.376,0,0,0,6,10.125v-.75A.376.376,0,0,0,5.625,9ZM7.5,10.125a.376.376,0,0,0,.375.375h.75A.376.376,0,0,0,9,10.125v-.75A.376.376,0,0,0,8.625,9h-.75a.376.376,0,0,0-.375.375Z" fill="#fff"/>
</svg>
