<svg xmlns="http://www.w3.org/2000/svg" width="34" height="34" viewBox="0 0 34 34">
  <g id="Group_21427" data-name="Group 21427" transform="translate(-332 -57)">
    <g id="Group_21410" data-name="Group 21410">
      <rect id="Rectangle_18060" data-name="Rectangle 18060" width="34" height="34" rx="4" transform="translate(332 57)" fill="#e74c3c"/>
    </g>
    <g id="Page-1" transform="translate(343.313 67)">
      <g id="Icon-Set-Filled">
        <path id="trash" d="M264.063,211.563a.438.438,0,0,1,.875,0v5.25a.438.438,0,0,1-.875,0v-5.25Zm2.188,0a.438.438,0,0,1,.875,0v5.25a.438.438,0,0,1-.875,0v-5.25Zm2.188,0a.438.438,0,0,1,.875,0v5.25a.438.438,0,0,1-.875,0v-5.25Zm-6.562,5.688a1.75,1.75,0,0,0,1.75,1.75h6.125a1.75,1.75,0,0,0,1.75-1.75v-7h-9.625v7ZM268,206.75h-2.625v-.437a.437.437,0,0,1,.438-.437h1.75a.437.437,0,0,1,.438.438v.438Zm3.5,0h-2.625v-.875A.875.875,0,0,0,268,205h-2.625a.875.875,0,0,0-.875.875v.875h-2.625a.875.875,0,0,0-.875.875v.875a.875.875,0,0,0,.875.875H271.5a.875.875,0,0,0,.874-.875v-.875a.875.875,0,0,0-.875-.875Z" transform="translate(-261 -205)" fill="#fff" fill-rule="evenodd"/>
      </g>
    </g>
  </g>
</svg>
