<svg xmlns="http://www.w3.org/2000/svg" width="21.563" height="20.044" viewBox="0 0 21.563 20.044">
  <g id="coin-locker-4-svgrepo-com" transform="translate(-5.932 -16.679) rotate(-14)">
    <path id="Path_1" data-name="Path 1" d="M158.086,22.861a1.15,1.15,0,0,1,1.15-1.15h2.515a1.15,1.15,0,0,1,1.15,1.15v.93h1.253v-.93a2.4,2.4,0,0,0-2.4-2.4h-2.515a2.4,2.4,0,0,0-2.4,2.4v.93h1.253v-.93Z" transform="translate(-151.044)" fill="#54ac89"/>
    <path id="Path_2" data-name="Path 2" d="M100.08,290.614a.774.774,0,1,0,.774.775A.775.775,0,0,0,100.08,290.614Z" transform="translate(-95.64 -260.184)" fill="#54ac89"/>
    <path id="Path_3" data-name="Path 3" d="M17.407,130.455H1.492A1.492,1.492,0,0,0,0,131.947v10.345a1.492,1.492,0,0,0,1.492,1.492H17.407a1.492,1.492,0,0,0,1.492-1.492V131.947A1.492,1.492,0,0,0,17.407,130.455Zm-1.171,7.2-.335.465a.322.322,0,0,1-.261.133h-5.8a3.7,3.7,0,1,1-.206-2.7h1.16a.323.323,0,0,1,.2.068l.966.748a.324.324,0,0,0,.392,0l.383-.29a.323.323,0,0,1,.39,0l.58.44h0l.58-.441a.324.324,0,0,1,.389,0l1.5,1.133A.323.323,0,0,1,16.237,137.659Z" transform="translate(0 -105.937)" fill="#54ac89"/>
  </g>
</svg>
