<svg id="logout-2-svgrepo-com" xmlns="http://www.w3.org/2000/svg" width="15" height="14.458" viewBox="0 0 15 14.458">
  <path id="Path_5457" data-name="Path 5457" d="M1.625,10.961a.542.542,0,0,1,.542-.542H10.1L8.682,9.2a.542.542,0,0,1,.706-.823l2.53,2.169a.542.542,0,0,1,0,.823l-2.53,2.169a.542.542,0,1,1-.706-.823L10.1,11.5H2.167A.542.542,0,0,1,1.625,10.961Z" transform="translate(2.893 -3.732)" fill="#fff" fill-rule="evenodd"/>
  <path id="Path_5458" data-name="Path 5458" d="M18.773,6.337a1.783,1.783,0,0,1-.122.944.723.723,0,0,1-.2.2,1.783,1.783,0,0,1-.944.122H14.435a1.627,1.627,0,0,0,0,3.253h3.072a1.784,1.784,0,0,1,.944.122.723.723,0,0,1,.2.2,1.783,1.783,0,0,1,.122.944c0,2.045,0,3.067-.635,3.7s-1.657.635-3.7.635h-.723c-2.045,0-3.067,0-3.7-.635s-.635-1.658-.635-3.7V6.337c0-2.045,0-3.067.635-3.7S11.668,2,13.712,2h.723c2.045,0,3.067,0,3.7.635S18.773,4.293,18.773,6.337Z" transform="translate(-9.375 -2)" fill="#fff"/>
</svg>
