<svg xmlns="http://www.w3.org/2000/svg" width="15.16" height="16" viewBox="0 0 15.16 16">
  <path id="privacy-policy-icon" d="M11.469,7.915A6.1,6.1,0,0,0,15.143,9.1c.185,3.757-1.2,5.975-3.66,6.9-2.375-.867-3.776-2.995-3.676-6.958A5.259,5.259,0,0,0,11.469,7.915ZM8.19,1.579l2.7,2.526H8.19ZM2.77,7.292H8.221c.357,0,.4.488.172.651-.108.02-.215.036-.323.051h-5.3c-.419,0-.419-.694,0-.7Zm0,2.18h3.8c.01.24.027.473.048.7H2.773c-.422,0-.417-.7,0-.7Zm0,2.18H6.833c.049.241.105.475.168.7H2.773c-.422,0-.417-.7,0-.7Zm0-6.539H5.906c.422,0,.417.7,0,.7H2.773c-.422,0-.418-.7,0-.7Zm0-2.027H4.495c.415,0,.421.7,0,.7H2.773c-.422,0-.417-.7,0-.7Zm9.62,1.384a.448.448,0,0,0-.327-.432L8.089.165A.447.447,0,0,0,7.741,0H.807A.807.807,0,0,0,0,.807V14.629a.809.809,0,0,0,.807.807H8.594a6.762,6.762,0,0,1-.661-.9H.9V.9H7.292v3.66a.452.452,0,0,0,.452.453h3.743V6.553q.458.289.9.527ZM11.5,9.2A4.164,4.164,0,0,0,14,10.008c.13,2.563-.82,4.076-2.5,4.706l-.031-.012V9.217L11.5,9.2Zm-.027-.822a5.4,5.4,0,0,0,3.255,1.048c.164,3.326-1.064,5.289-3.241,6.108-2.109-.767-3.348-2.645-3.255-6.16a4.654,4.654,0,0,0,3.241-1Z" fill="#fff" fill-rule="evenodd"/>
</svg>
