<svg xmlns="http://www.w3.org/2000/svg" width="15.186" height="16" viewBox="0 0 15.186 16">
  <g id="delete-trash-remove-svgrepo-com" transform="translate(-2 -1.5)">
    <path id="Path_5455" data-name="Path 5455" d="M10.405,3.311h6.036a.905.905,0,0,0,0-1.811H10.405a.905.905,0,0,0,0,1.811Z" transform="translate(-3.83)" fill="#fff" fill-rule="evenodd"/>
    <path id="Path_5456" data-name="Path 5456" d="M3.627,8.09v8.743a2.681,2.681,0,0,0,2.712,2.649h6.508a2.681,2.681,0,0,0,2.712-2.649V8.09h.892a.8.8,0,0,0,0-1.59H2.735a.8.8,0,0,0,0,1.59h.892Zm3.8,1.855V16.3a.543.543,0,0,0,1.085,0V9.944a.543.543,0,0,0-1.085,0Zm3.254,0V16.3a.543.543,0,0,0,1.085,0V9.944a.543.543,0,0,0-1.085,0Z" transform="translate(0 -1.982)" fill="#fff" fill-rule="evenodd"/>
  </g>
</svg>
