<svg id="Icons" xmlns="http://www.w3.org/2000/svg" width="34" height="34" viewBox="0 0 34 34">
  <g id="Color-">
    <path id="Whatsapp" d="M717,360a16.989,16.989,0,0,0-13.758,26.964l-2.118,6.316,6.534-2.088A17,17,0,1,0,717,360H717Zm-4.746,8.635c-.33-.789-.579-.819-1.079-.84-.17-.01-.359-.02-.569-.02a2.466,2.466,0,0,0-1.739.61,5.429,5.429,0,0,0-1.738,4.137,9.716,9.716,0,0,0,2.018,5.127c.25.33,3.467,5.407,8.463,7.476,3.906,1.619,5.066,1.469,5.955,1.279,1.3-.28,2.928-1.24,3.337-2.4a4.219,4.219,0,0,0,.289-2.359c-.12-.21-.45-.329-.949-.58s-2.928-1.449-3.387-1.609a.948.948,0,0,0-1.219.37,20.854,20.854,0,0,1-1.329,1.759,1.075,1.075,0,0,1-1.2.19,12.532,12.532,0,0,1-3.987-2.459,15.126,15.126,0,0,1-2.757-3.428c-.29-.5-.03-.79.2-1.059.25-.31.49-.53.739-.82a2.98,2.98,0,0,0,.549-.78,1.014,1.014,0,0,0-.07-.919C713.658,372.063,712.659,369.624,712.249,368.635Z" transform="translate(-700 -360)" fill="#67c15e" fill-rule="evenodd"/>
  </g>
</svg>
